<svg width="30" height="40" xmlns="http://www.w3.org/2000/svg"><path d="M25.875 4.196v0m-21.75 0v0M1.373 1h27.254c.206 0 .374.168.373.375v37.25a.373.373 0 01-.373.375H1.373A.373.373 0 011 38.625V1.375C1 1.168 1.167 1 1.373 1zM1.21 15.74h27.571M4.31 30.442H25.69c.225 0 .407.182.407.409v4.314a.407.407 0 01-.407.409H4.31a.407.407 0 01-.407-.409v-4.314c0-.227.182-.409.407-.409zM3.074 14.867C3.075 8.257 8.414 2.9 15 2.9s11.925 5.357 11.926 11.967m-16.054.46c0-5.524 8.256-5.524 8.256 0m-5.5-.075c0-1.508 2.742-1.508 2.743 0" fill="none" stroke="#151528" stroke-width="2" stroke-linecap="round" stroke-linejoin="round"/></svg>